<svg width="71" height="71" viewBox="0 0 71 71" fill="none" xmlns="http://www.w3.org/2000/svg">
<g filter="url(#filter0_d_6_539)">
<circle cx="20.286" cy="20.286" r="20.286" transform="matrix(-1 0 0 1 55.5719 11)" fill="white"/>
</g>
<path d="M44.6871 29.8544C45.0776 30.2449 45.0776 30.8781 44.6871 31.2686L38.3232 37.6326C37.9326 38.0231 37.2995 38.0231 36.9089 37.6326C36.5184 37.2421 36.5184 36.6089 36.9089 36.2184L42.5658 30.5615L36.9089 24.9047C36.5184 24.5141 36.5184 23.881 36.9089 23.4905C37.2995 23.0999 37.9326 23.0999 38.3232 23.4905L44.6871 29.8544ZM27.3165 29.5615L43.98 29.5615V31.5615L27.3165 31.5615V29.5615Z" fill="#222222" fill-opacity="0.5"/>
<defs>
<filter id="filter0_d_6_539" x="-6.10352e-05" y="0" width="70.572" height="70.5719" filterUnits="userSpaceOnUse" color-interpolation-filters="sRGB">
<feFlood flood-opacity="0" result="BackgroundImageFix"/>
<feColorMatrix in="SourceAlpha" type="matrix" values="0 0 0 0 0 0 0 0 0 0 0 0 0 0 0 0 0 0 127 0" result="hardAlpha"/>
<feOffset dy="4"/>
<feGaussianBlur stdDeviation="7.5"/>
<feColorMatrix type="matrix" values="0 0 0 0 0 0 0 0 0 0 0 0 0 0 0 0 0 0 0.09 0"/>
<feBlend mode="normal" in2="BackgroundImageFix" result="effect1_dropShadow_6_539"/>
<feBlend mode="normal" in="SourceGraphic" in2="effect1_dropShadow_6_539" result="shape"/>
</filter>
</defs>
</svg>
